<?xml version="1.0" ?><!DOCTYPE svg  PUBLIC '-//W3C//DTD SVG 1.0//EN'  'http://www.w3.org/TR/2001/REC-SVG-20010904/DTD/svg10.dtd'><svg enable-background="new 12.401 12.401 425.197 425.197" height="425.197px" id="Layer_1" version="1.0" viewBox="12.401 12.401 425.197 425.197" width="425.197px" xml:space="preserve" xmlns="http://www.w3.org/2000/svg" xmlns:xlink="http://www.w3.org/1999/xlink"><g><g><path d="M328.136,197.213c-4.263,0-8.43,0.406-12.479,1.146c-3.464-47.059-42.711-84.171-90.656-84.171    c-47.949,0-87.198,37.117-90.656,84.182c-4.067-0.746-8.251-1.156-12.535-1.156c-38.125,0-69.031,30.963-69.031,69.088    c0,37.96,30.641,69.199,68.537,69.199c0,0,205.844,0,206.821,0c38.155,0,69.087-30.988,69.087-69.144    C397.223,228.2,366.291,197.213,328.136,197.213z" fill="#27AAE0"/></g><g><path d="M204.266,208.549c0-7.661,2.018-25.484,20.733-25.484c18.04,0,20.733,15.967,20.733,25.484v3.888h17.278    v-3.457c0-24.932-15.973-41.466-38.012-41.466s-38.011,16.534-38.011,41.466v3.457h17.277V208.549z M261.284,219.348h-72.568    c-8.585,0-15.55,6.965-15.55,15.55v51.834c0,8.585,6.965,15.55,15.55,15.55h72.568c8.584,0,15.55-6.965,15.55-15.55v-51.834    C276.834,226.312,269.868,219.348,261.284,219.348z M230.184,264.56v11.806c0,2.855-2.33,5.184-5.185,5.184    s-5.183-2.328-5.183-5.184V264.56c-3.088-1.794-5.184-5.102-5.184-8.928c0-5.724,4.643-10.368,10.366-10.368    s10.367,4.645,10.367,10.368C235.366,259.458,233.27,262.766,230.184,264.56z" fill="#FFFFFF"/></g></g></svg>